HIERARCHY
ROOT root
{
	OFFSET	0	13.1	24.9
	CHANNELS 6  Xposition Yposition Zposition Xrotation Yrotation Zrotation
	JOINT spine_1
	{
		OFFSET	0	9.99999	0
		CHANNELS 3  Xrotation Yrotation Zrotation
		JOINT spine_2
		{
			OFFSET	0	112	-10
			CHANNELS 3  Xrotation Yrotation Zrotation
			JOINT spine_3
			{
				OFFSET	0	206.5	19.3
				CHANNELS 3  Xrotation Yrotation Zrotation
				JOINT spine_4
				{
					OFFSET	0	110.4	14.6
					CHANNELS 3  Xrotation Yrotation Zrotation
					JOINT neck_1
					{
						OFFSET	0	71.8	-50.3
						CHANNELS 3  Xrotation Yrotation Zrotation
						JOINT neck_2
						{
							OFFSET	0	86.2	-25.8
							CHANNELS 3  Xrotation Yrotation Zrotation
							JOINT head_ee
							{
								OFFSET	0	179.8	-8.7
								CHANNELS 3  Xrotation Yrotation Zrotation
								End Site
								{
									OFFSET	1	0	0
								}
							}
						}
					}
					JOINT left_clavicle
					{
						OFFSET	-43.2	22.4	-70.8
						CHANNELS 3  Xrotation Yrotation Zrotation
						JOINT left_shoulder
						{
							OFFSET	-93.9	-5.79999	48.7
							CHANNELS 3  Xrotation Yrotation Zrotation
							JOINT left_elbow
							{
								OFFSET	-291.4	-30.8	15.2
								CHANNELS 3  Xrotation Yrotation Zrotation
								JOINT left_lowarm_twist
								{
									OFFSET	-110.7	-3.89999	13.6
									CHANNELS 3  Xrotation Yrotation Zrotation
									JOINT left_hand
									{
										OFFSET	-110.7	-3.89999	13.6
										CHANNELS 3  Xrotation Yrotation Zrotation
										JOINT left_ee
										{
											OFFSET	-80.8	-5.10001	12.1
											CHANNELS 3  Xrotation Yrotation Zrotation
											End Site
											{
												OFFSET	1	0	0
											}
										}
									}
								}
							}
						}
					}
					JOINT right_clavicle
					{
						OFFSET	43.2	22.4	-70.8
						CHANNELS 3  Xrotation Yrotation Zrotation
						JOINT right_shoulder
						{
							OFFSET	93.9	-5.79999	48.7
							CHANNELS 3  Xrotation Yrotation Zrotation
							JOINT right_elbow
							{
								OFFSET	291.4	-30.8	15.2
								CHANNELS 3  Xrotation Yrotation Zrotation
								JOINT right_lowarm_twist
								{
									OFFSET	110.7	-3.89999	13.6
									CHANNELS 3  Xrotation Yrotation Zrotation
									JOINT right_hand
									{
										OFFSET	110.7	-3.89999	13.6
										CHANNELS 3  Xrotation Yrotation Zrotation
										JOINT right_ee
										{
											OFFSET	80.8	-5.10001	12.1
											CHANNELS 3  Xrotation Yrotation Zrotation
											End Site
											{
												OFFSET	1	0	0
											}
										}
									}
								}
							}
						}
					}
				}
			}
		}
	}
	JOINT left_hip
	{
		OFFSET	-82.8	-127.5	0.300001
		CHANNELS 3  Xrotation Yrotation Zrotation
		JOINT left_knee
		{
			OFFSET	-28.2	-396.7	2.2
			CHANNELS 3  Xrotation Yrotation Zrotation
			JOINT left_ankle
			{
				OFFSET	-11.7	-411.3	35.4
				CHANNELS 3  Xrotation Yrotation Zrotation
				JOINT left_toes
				{
					OFFSET	0	-60	-88.6
					CHANNELS 3  Xrotation Yrotation Zrotation
					JOINT left_foot_ee
					{
						OFFSET	-22.5	-16.5	-42.2
						CHANNELS 3  Xrotation Yrotation Zrotation
						End Site
						{
							OFFSET	1	0	0
						}
					}
				}
			}
		}
	}
	JOINT right_hip
	{
		OFFSET	82.8	-127.5	0.300001
		CHANNELS 3  Xrotation Yrotation Zrotation
		JOINT right_knee
		{
			OFFSET	28.2	-396.7	2.2
			CHANNELS 3  Xrotation Yrotation Zrotation
			JOINT right_ankle
			{
				OFFSET	11.7	-411.3	35.4
				CHANNELS 3  Xrotation Yrotation Zrotation
				JOINT right_toes
				{
					OFFSET	0	-60	-88.6
					CHANNELS 3  Xrotation Yrotation Zrotation
					JOINT right_foot_ee
					{
						OFFSET	22.5	-16.5	-42.2
						CHANNELS 3  Xrotation Yrotation Zrotation
						End Site
						{
							OFFSET	1	0	0
						}
					}
				}
			}
		}
	}
}
MOTION
Frames: 6
Frame Time: 0.02
1255.17 731.98 -540.586 83.2259 -82.5227 88.4983 -1.62102 -0.413347 -2.61233 -1.61726 -0.246339 -2.63332 -1.60226 0.386117 -2.6165 -1.61181 -0.0318052 -2.64462 -8.67826 3.05182 10.2747 -8.37961 -1.47359 10.8249 -0.0 0.0 -0.0 2.82128 -10.8961 4.5816 18.6794 -0.82966 72.9305 2.15118 -46.8139 0.931297 -62.9331 -5.64962 5.18309 -1.89878 7.78664 -9.10739 -0.0 0.0 -0.0 -2.00021 -12.242 1.90085 -15.5847 39.3417 -63.7917 0.335239 9.42911 -0.0276474 45.4459 0.662404 5.61755 -4.21012 -24.3755 14.4129 0.0 0.0 0.0 1.4729 39.6407 -7.23823 -8.19313 0.249628 1.23155 23.3817 -27.2892 -3.7895 1.79912 -0.0 -0.0 -0.0 0.0 -0.0 8.80847 26.7175 -12.2576 -31.0757 -0.00136433 -4.71099 40.8402 -11.3265 4.96105 -35.8888 0.0 0.0 0.0 0.0 0.0 
1271.93 727.244 -545.397 81.8205 -82.7346 87.0906 -1.67802 -0.485412 -2.60872 -1.67429 -0.318488 -2.6343 -1.65579 0.318653 -2.63428 -1.66546 -0.10123 -2.65154 -8.20851 2.87004 9.68963 -7.94245 -1.48387 10.2239 -0.0 0.0 -0.0 2.94017 -12.1377 4.72216 21.9865 -1.54494 72.11 2.25538 -48.1632 1.00812 -61.0573 -5.41453 5.13288 -1.80983 8.70201 -8.08889 -0.0 0.0 -0.0 -2.87336 -12.7228 3.27959 -16.0708 39.0154 -64.0216 0.36775 10.3247 -0.0332243 44.617 0.610938 5.52481 -4.05408 -22.3006 14.8149 0.0 0.0 0.0 0.344898 37.7771 -6.262 -9.17858 0.267712 1.38169 24.1075 -26.9912 -3.87603 3.02257 -0.0 -0.0 -0.0 0.0 -0.0 7.34464 32.2072 -12.0987 -25.7453 -0.183377 -3.91349 41.1257 -12.5321 4.99863 -36.735 0.0 0.0 0.0 0.0 0.0 
1281.45 728.49 -547.79 78.5478 -83.742 83.853 -1.37058 -0.611307 -2.62187 -1.36687 -0.443292 -2.65543 -1.34255 0.187663 -2.6856 -1.35254 -0.238676 -2.68155 -7.82376 1.79087 7.29765 -7.67156 -1.85148 7.6318 -0.0 0.0 -0.0 2.85344 -14.0886 4.36649 23.2838 -2.03475 70.7998 2.30126 -48.7355 1.04245 -60.3659 -5.32829 5.11243 -1.83705 9.72051 -7.78079 -0.0 0.0 -0.0 -3.54749 -12.8987 4.37455 -15.9017 38.227 -64.9342 0.39027 10.9421 -0.0373799 44.8407 0.624693 5.54991 -3.90323 -22.699 13.6568 0.0 0.0 0.0 -0.896539 32.0469 -4.88961 -8.72532 0.259715 1.31259 27.5624 -29.335 -4.45576 6.25154 -0.0 -0.0 -0.0 0.0 -0.0 15.4414 47.0737 -15.504 -16.4033 -0.321123 -2.48818 40.4055 -18.3667 5.02957 -37.7502 0.0 0.0 0.0 0.0 0.0 
1292.84 723.284 -549.737 78.5823 -84.1167 84.0066 -1.21977 -0.582915 -2.68308 -1.21586 -0.411067 -2.7147 -1.19268 0.225697 -2.73634 -1.20307 -0.209123 -2.73765 -7.88834 1.82666 7.65426 -7.72084 -2.03077 7.99189 -0.0 0.0 -0.0 3.01398 -17.4879 4.39458 24.869 -2.74569 68.6815 2.44565 -50.4552 1.15241 -59.4841 -5.21866 5.08483 -1.8253 10.3866 -7.38703 -0.0 0.0 -0.0 -4.09849 -13.0593 5.26525 -15.6236 38.1705 -65.6738 0.368448 10.3439 -0.0333496 44.7905 0.621598 5.54428 -3.85303 -22.5065 13.4758 0.0 0.0 0.0 -1.78383 31.3985 -4.50881 -7.33257 0.231724 1.10071 30.7858 -30.0727 -4.90892 6.88713 -0.0 -0.0 -0.0 0.0 -0.0 16.6467 50.7462 -14.3394 -10.6903 -0.290427 -1.61252 40.139 -18.3695 5.0054 -37.5574 0.0 0.0 0.0 0.0 0.0 
1306.6 720.476 -550.638 77.7667 -83.7168 83.1736 -1.20134 -0.667492 -2.66753 -1.19752 -0.496462 -2.70456 -1.1703 0.139091 -2.74619 -1.18071 -0.296199 -2.73372 -8.52648 1.74181 7.54726 -8.36416 -2.02908 7.84342 -0.0 0.0 -0.0 3.06637 -19.4132 4.32412 25.9718 -4.2195 66.8483 2.46935 -50.7261 1.17072 -58.0086 -5.03618 5.03488 -1.64699 9.56367 -6.62505 -0.0 0.0 -0.0 -4.4978 -13.6459 5.80195 -16.0661 37.7523 -65.7063 0.332559 9.35507 -0.0272101 44.7785 0.620861 5.54294 -3.72268 -21.6396 13.2236 0.0 0.0 0.0 -3.90638 31.2027 -3.79194 -5.83182 0.195805 0.873209 32.1997 -31.0852 -5.14642 6.51665 -0.0 -0.0 -0.0 0.0 -0.0 18.3778 50.6832 -13.6706 -6.84201 -0.220639 -1.02624 40.6494 -20.5015 5.10028 -37.6778 0.0 0.0 0.0 0.0 0.0 
1318.89 717.635 -548.271 79.5805 -83.6976 85.2011 -1.28291 -0.565824 -2.78064 -1.27869 -0.38781 -2.81098 -1.25567 0.273673 -2.82437 -1.26676 -0.175633 -2.83215 -9.38003 1.57816 8.38757 -9.18043 -2.80342 8.60225 -0.0 0.0 -0.0 3.49532 -19.702 5.2191 26.8849 -5.13002 65.8425 2.8847 -55.0053 1.50208 -57.1939 -4.93598 5.00528 -1.54849 9.50768 -6.01461 -0.0 0.0 -0.0 -4.74656 -14.2471 6.07469 -15.3348 37.5059 -66.4758 0.29595 8.34061 -0.021579 44.7443 0.618753 5.5391 -3.57668 -20.7993 12.845 0.0 0.0 0.0 -6.08453 28.4322 -3.61373 -3.17731 0.117718 0.473345 35.8846 -31.7618 -5.61926 6.92568 -0.0 -0.0 -0.0 0.0 -0.0 18.8394 51.5742 -11.9343 -3.1999 -0.118461 -0.476731 38.7935 -21.5229 4.95187 -37.8316 0.0 0.0 0.0 0.0 0.0 
